<svg xmlns="http://www.w3.org/2000/svg" viewBox="0 0 128 128" role="img" aria-label="Walkthrough Game Hub favicon">
  <defs>
    <radialGradient id="bg" cx="36%" cy="24%" r="78%">
      <stop offset="0" stop-color="#38bdf8"/>
      <stop offset="0.42" stop-color="#0f2a5f"/>
      <stop offset="1" stop-color="#050b1d"/>
    </radialGradient>
    <linearGradient id="route" x1="42" x2="90" y1="20" y2="104" gradientUnits="userSpaceOnUse">
      <stop offset="0" stop-color="#67e8f9"/>
      <stop offset="1" stop-color="#0ea5e9"/>
    </linearGradient>
  </defs>
  <circle cx="64" cy="64" r="58" fill="url(#bg)"/>
  <circle cx="64" cy="64" r="51" fill="none" stroke="#7dd3fc" stroke-opacity=".42" stroke-width="4"/>
  <path fill="none" stroke="#c7eaff" stroke-opacity=".5" stroke-width="3" d="M19 61c20-7 33-6 45 1 17 10 28 8 45-2M28 35c21 8 47 9 73 0M29 93c20-7 45-7 69 0"/>
  <path fill="none" stroke="url(#route)" stroke-linecap="round" stroke-linejoin="round" stroke-width="8" d="M45 22c21 20 16 33 3 46-10 10-8 21 5 28 10 6 19 9 14 21"/>
  <path fill="#f8fafc" d="M25 42h17l12 34 11-27 10 27 12-34h17L81 93H68L64 81l-5 12H47L25 42z"/>
  <circle cx="45" cy="22" r="6" fill="#e0f2fe"/>
  <circle cx="48" cy="68" r="6" fill="#e0f2fe"/>
  <circle cx="67" cy="117" r="6" fill="#e0f2fe"/>
  <path fill="#fbbf24" d="M60 102h8v8h-8zM60 113h8v8h-8zM49 113h8v8h-8zM71 113h8v8h-8z" rx="2"/>
</svg>
