<svg xmlns="http://www.w3.org/2000/svg" viewBox="0 0 512 512" role="img" aria-label="Walkthrough Game Hub logo">
  <defs>
    <linearGradient id="navy" x1="94" x2="420" y1="72" y2="444" gradientUnits="userSpaceOnUse">
      <stop offset="0" stop-color="#0e1b3a"/>
      <stop offset="0.52" stop-color="#061126"/>
      <stop offset="1" stop-color="#0b3f9d"/>
    </linearGradient>
    <linearGradient id="cyan" x1="160" x2="360" y1="88" y2="430" gradientUnits="userSpaceOnUse">
      <stop offset="0" stop-color="#39f5ff"/>
      <stop offset="0.52" stop-color="#0fb9ff"/>
      <stop offset="1" stop-color="#0867ff"/>
    </linearGradient>
    <linearGradient id="white" x1="144" x2="378" y1="180" y2="356" gradientUnits="userSpaceOnUse">
      <stop offset="0" stop-color="#ffffff"/>
      <stop offset="1" stop-color="#d8dce5"/>
    </linearGradient>
    <filter id="shadow" x="-20%" y="-20%" width="140%" height="140%">
      <feDropShadow dx="0" dy="12" stdDeviation="16" flood-color="#020617" flood-opacity=".35"/>
    </filter>
  </defs>

  <g filter="url(#shadow)">
    <path fill="url(#navy)" d="M256 24l31 88c50 8 92 34 122 71l88 31-88 31c-8 50-34 92-71 122l-31 88-31-88c-50-8-92-34-122-71l-88-31 88-31c8-50 34-92 71-122l31-88z"/>
    <circle cx="256" cy="256" r="179" fill="#071329"/>
    <path fill="none" stroke="url(#cyan)" stroke-linecap="round" stroke-width="18" d="M129 222c23-55 70-94 127-106m128 110c-18-52-60-93-113-110m105 207c-28 38-72 63-122 66m-129-80c16 37 45 67 81 84"/>

    <path fill="url(#white)" d="M104 190h65l55 138 51-109 31 67 44-96h62l-87 201h-34l-39-84-42 84h-35L104 190z"/>

    <path fill="url(#cyan)" d="M286 95l29 99-43-20c-29 38-41 70-36 96 4 22 22 38 41 55 29 26 61 54 55 108-2 17-8 34-19 52l-36-25c9-15 13-28 12-40-2-21-18-36-40-55-26-23-57-50-58-95-1-36 17-75 54-118l-44-21 85-36z"/>

    <g fill="#ffab2e" stroke="#ffca63" stroke-width="4">
      <path d="M250 381h28v46h-28z" rx="8"/>
      <path d="M250 332h28v46h-28z" rx="8"/>
      <path d="M201 381h46v28h-46z" rx="8"/>
      <path d="M281 381h46v28h-46z" rx="8"/>
    </g>
  </g>
</svg>
